<mxfile host="Electron" agent="Mozilla/5.0 (Windows NT 10.0; Win64; x64) AppleWebKit/537.36 (KHTML, like Gecko) draw.io/24.7.8 Chrome/128.0.6613.36 Electron/32.0.1 Safari/537.36" version="24.7.8">
  <diagram id="prtHgNgQTEPvFCAcTncT" name="Page-1">
    <mxGraphModel dx="1434" dy="844" grid="1" gridSize="10" guides="1" tooltips="1" connect="1" arrows="1" fold="1" page="1" pageScale="1" pageWidth="1169" pageHeight="827" math="0" shadow="0">
      <root>
        <mxCell id="0" />
        <mxCell id="1" parent="0" />
        <mxCell id="tIHRY-3RhcEeKSHxBCo6-1" value="Projeto FATEC - Sistema de Vendas e Compras" style="rounded=0;whiteSpace=wrap;html=1;points=[[0,0,0,0,0],[0,0.25,0,0,0],[0,0.5,0,0,0],[0,0.75,0,0,0],[0,1,0,0,0],[0.25,0,0,0,0],[0.25,1,0,0,0],[0.5,0,0,0,0],[0.5,1,0,0,0],[0.75,0,0,0,0],[0.75,1,0,0,0],[1,0,0,0,0],[1,0.25,0,0,0],[1,0.5,0,0,0],[1,0.75,0,0,0],[1,1,0,0,0]];" parent="1" vertex="1">
          <mxGeometry x="523" y="10" width="120" height="60" as="geometry" />
        </mxCell>
        <mxCell id="tIHRY-3RhcEeKSHxBCo6-39" value="3.2.1 Endpoint para &quot;Clientes&quot; (view fatec_clientes)" style="rounded=0;whiteSpace=wrap;html=1;" parent="1" vertex="1">
          <mxGeometry x="585" y="520" width="120" height="60" as="geometry" />
        </mxCell>
        <mxCell id="NN94MEbzVgPjQeB1y7oX-23" value="" style="edgeStyle=orthogonalEdgeStyle;rounded=0;orthogonalLoop=1;jettySize=auto;html=1;exitX=1;exitY=0.5;exitDx=0;exitDy=0;exitPerimeter=0;entryX=1;entryY=0.5;entryDx=0;entryDy=0;entryPerimeter=0;" edge="1" parent="1" target="tIHRY-3RhcEeKSHxBCo6-40">
          <mxGeometry relative="1" as="geometry">
            <mxPoint x="650" y="390" as="sourcePoint" />
            <Array as="points">
              <mxPoint x="725" y="390" />
              <mxPoint x="725" y="630" />
            </Array>
          </mxGeometry>
        </mxCell>
        <mxCell id="tIHRY-3RhcEeKSHxBCo6-40" value="3.2.2 Endpoint para &quot;Produtos&quot; (view fatec_produtos)" style="rounded=0;whiteSpace=wrap;html=1;" parent="1" vertex="1">
          <mxGeometry x="585" y="600" width="120" height="60" as="geometry" />
        </mxCell>
        <mxCell id="NN94MEbzVgPjQeB1y7oX-25" value="" style="edgeStyle=orthogonalEdgeStyle;rounded=0;orthogonalLoop=1;jettySize=auto;html=1;exitX=1.017;exitY=0.55;exitDx=0;exitDy=0;exitPerimeter=0;entryX=1;entryY=0.5;entryDx=0;entryDy=0;entryPerimeter=0;" edge="1" parent="1" source="tIHRY-3RhcEeKSHxBCo6-31" target="tIHRY-3RhcEeKSHxBCo6-41">
          <mxGeometry relative="1" as="geometry">
            <Array as="points">
              <mxPoint x="725" y="390" />
              <mxPoint x="725" y="710" />
            </Array>
          </mxGeometry>
        </mxCell>
        <mxCell id="tIHRY-3RhcEeKSHxBCo6-41" value="3.2.3 Endpoint para &quot;Vendas&quot; (view fatec_vendas)" style="rounded=0;whiteSpace=wrap;html=1;" parent="1" vertex="1">
          <mxGeometry x="585" y="680" width="120" height="60" as="geometry" />
        </mxCell>
        <mxCell id="NN94MEbzVgPjQeB1y7oX-27" value="" style="edgeStyle=orthogonalEdgeStyle;rounded=0;orthogonalLoop=1;jettySize=auto;html=1;exitX=0.992;exitY=0.55;exitDx=0;exitDy=0;exitPerimeter=0;entryX=1;entryY=0.5;entryDx=0;entryDy=0;entryPerimeter=0;" edge="1" parent="1" source="tIHRY-3RhcEeKSHxBCo6-31" target="tIHRY-3RhcEeKSHxBCo6-42">
          <mxGeometry relative="1" as="geometry">
            <mxPoint x="785" y="790" as="sourcePoint" />
          </mxGeometry>
        </mxCell>
        <mxCell id="tIHRY-3RhcEeKSHxBCo6-42" value="3.2.4 Endpoint para &quot;Contas a Receber&quot; (view fatec_contas_receber)" style="rounded=0;whiteSpace=wrap;html=1;" parent="1" vertex="1">
          <mxGeometry x="585" y="760" width="120" height="60" as="geometry" />
        </mxCell>
        <mxCell id="NN94MEbzVgPjQeB1y7oX-14" value="" style="group" vertex="1" connectable="0" parent="1">
          <mxGeometry x="45" y="160" width="120" height="430" as="geometry" />
        </mxCell>
        <mxCell id="tIHRY-3RhcEeKSHxBCo6-12" style="edgeStyle=orthogonalEdgeStyle;rounded=0;orthogonalLoop=1;jettySize=auto;html=1;exitX=0;exitY=0.5;exitDx=0;exitDy=0;entryX=0;entryY=0.5;entryDx=0;entryDy=0;" parent="NN94MEbzVgPjQeB1y7oX-14" source="tIHRY-3RhcEeKSHxBCo6-2" target="tIHRY-3RhcEeKSHxBCo6-8" edge="1">
          <mxGeometry relative="1" as="geometry" />
        </mxCell>
        <mxCell id="tIHRY-3RhcEeKSHxBCo6-13" style="edgeStyle=orthogonalEdgeStyle;rounded=0;orthogonalLoop=1;jettySize=auto;html=1;exitX=0;exitY=0.5;exitDx=0;exitDy=0;entryX=0;entryY=0.5;entryDx=0;entryDy=0;" parent="NN94MEbzVgPjQeB1y7oX-14" source="tIHRY-3RhcEeKSHxBCo6-2" target="tIHRY-3RhcEeKSHxBCo6-9" edge="1">
          <mxGeometry relative="1" as="geometry" />
        </mxCell>
        <mxCell id="tIHRY-3RhcEeKSHxBCo6-14" style="edgeStyle=orthogonalEdgeStyle;rounded=0;orthogonalLoop=1;jettySize=auto;html=1;exitX=0;exitY=0.5;exitDx=0;exitDy=0;entryX=0;entryY=0.5;entryDx=0;entryDy=0;" parent="NN94MEbzVgPjQeB1y7oX-14" source="tIHRY-3RhcEeKSHxBCo6-2" target="tIHRY-3RhcEeKSHxBCo6-10" edge="1">
          <mxGeometry relative="1" as="geometry" />
        </mxCell>
        <mxCell id="tIHRY-3RhcEeKSHxBCo6-15" style="edgeStyle=orthogonalEdgeStyle;rounded=0;orthogonalLoop=1;jettySize=auto;html=1;exitX=0;exitY=0.5;exitDx=0;exitDy=0;entryX=0;entryY=0.5;entryDx=0;entryDy=0;" parent="NN94MEbzVgPjQeB1y7oX-14" source="tIHRY-3RhcEeKSHxBCo6-2" target="tIHRY-3RhcEeKSHxBCo6-11" edge="1">
          <mxGeometry relative="1" as="geometry" />
        </mxCell>
        <mxCell id="tIHRY-3RhcEeKSHxBCo6-2" value="Fase 1 - Planejamento e Requisitos" style="rounded=0;whiteSpace=wrap;html=1;" parent="NN94MEbzVgPjQeB1y7oX-14" vertex="1">
          <mxGeometry width="120" height="60" as="geometry" />
        </mxCell>
        <mxCell id="tIHRY-3RhcEeKSHxBCo6-8" value="1.1 Reunião de Kickoff" style="rounded=0;whiteSpace=wrap;html=1;" parent="NN94MEbzVgPjQeB1y7oX-14" vertex="1">
          <mxGeometry y="110" width="120" height="60" as="geometry" />
        </mxCell>
        <mxCell id="tIHRY-3RhcEeKSHxBCo6-9" value="1.2 Revisão dos Requisitos Funcionais" style="rounded=0;whiteSpace=wrap;html=1;" parent="NN94MEbzVgPjQeB1y7oX-14" vertex="1">
          <mxGeometry y="197" width="120" height="60" as="geometry" />
        </mxCell>
        <mxCell id="tIHRY-3RhcEeKSHxBCo6-10" value="1.3 Requisitos de Integração" style="rounded=0;whiteSpace=wrap;html=1;" parent="NN94MEbzVgPjQeB1y7oX-14" vertex="1">
          <mxGeometry y="283" width="120" height="60" as="geometry" />
        </mxCell>
        <mxCell id="tIHRY-3RhcEeKSHxBCo6-11" value="1.4 Definição do Escopo" style="rounded=0;whiteSpace=wrap;html=1;" parent="NN94MEbzVgPjQeB1y7oX-14" vertex="1">
          <mxGeometry y="370" width="120" height="60" as="geometry" />
        </mxCell>
        <mxCell id="NN94MEbzVgPjQeB1y7oX-15" value="" style="group" vertex="1" connectable="0" parent="1">
          <mxGeometry x="285" y="160" width="120" height="343" as="geometry" />
        </mxCell>
        <mxCell id="tIHRY-3RhcEeKSHxBCo6-16" style="edgeStyle=orthogonalEdgeStyle;rounded=0;orthogonalLoop=1;jettySize=auto;html=1;exitX=0;exitY=0.5;exitDx=0;exitDy=0;entryX=0;entryY=0.5;entryDx=0;entryDy=0;" parent="NN94MEbzVgPjQeB1y7oX-15" source="tIHRY-3RhcEeKSHxBCo6-20" target="tIHRY-3RhcEeKSHxBCo6-21" edge="1">
          <mxGeometry relative="1" as="geometry" />
        </mxCell>
        <mxCell id="tIHRY-3RhcEeKSHxBCo6-17" style="edgeStyle=orthogonalEdgeStyle;rounded=0;orthogonalLoop=1;jettySize=auto;html=1;exitX=0;exitY=0.5;exitDx=0;exitDy=0;entryX=0;entryY=0.5;entryDx=0;entryDy=0;" parent="NN94MEbzVgPjQeB1y7oX-15" source="tIHRY-3RhcEeKSHxBCo6-20" target="tIHRY-3RhcEeKSHxBCo6-22" edge="1">
          <mxGeometry relative="1" as="geometry" />
        </mxCell>
        <mxCell id="tIHRY-3RhcEeKSHxBCo6-18" style="edgeStyle=orthogonalEdgeStyle;rounded=0;orthogonalLoop=1;jettySize=auto;html=1;exitX=0;exitY=0.5;exitDx=0;exitDy=0;entryX=0;entryY=0.5;entryDx=0;entryDy=0;" parent="NN94MEbzVgPjQeB1y7oX-15" source="tIHRY-3RhcEeKSHxBCo6-20" target="tIHRY-3RhcEeKSHxBCo6-23" edge="1">
          <mxGeometry relative="1" as="geometry" />
        </mxCell>
        <mxCell id="tIHRY-3RhcEeKSHxBCo6-20" value="Fase 2 - Design e Arquitetura" style="rounded=0;whiteSpace=wrap;html=1;" parent="NN94MEbzVgPjQeB1y7oX-15" vertex="1">
          <mxGeometry width="120" height="60" as="geometry" />
        </mxCell>
        <mxCell id="tIHRY-3RhcEeKSHxBCo6-21" value="2.1 Desenho da Arquitetura" style="rounded=0;whiteSpace=wrap;html=1;" parent="NN94MEbzVgPjQeB1y7oX-15" vertex="1">
          <mxGeometry y="110" width="120" height="60" as="geometry" />
        </mxCell>
        <mxCell id="tIHRY-3RhcEeKSHxBCo6-22" value="2.2 Design do Banco de Dados (para possíveis expansões)" style="rounded=0;whiteSpace=wrap;html=1;" parent="NN94MEbzVgPjQeB1y7oX-15" vertex="1">
          <mxGeometry y="197" width="120" height="60" as="geometry" />
        </mxCell>
        <mxCell id="tIHRY-3RhcEeKSHxBCo6-23" value="2.3 Prototipação das Telas" style="rounded=0;whiteSpace=wrap;html=1;" parent="NN94MEbzVgPjQeB1y7oX-15" vertex="1">
          <mxGeometry y="283" width="120" height="60" as="geometry" />
        </mxCell>
        <mxCell id="NN94MEbzVgPjQeB1y7oX-16" value="" style="group" vertex="1" connectable="0" parent="1">
          <mxGeometry x="523" y="160" width="125" height="343" as="geometry" />
        </mxCell>
        <mxCell id="tIHRY-3RhcEeKSHxBCo6-25" style="edgeStyle=orthogonalEdgeStyle;rounded=0;orthogonalLoop=1;jettySize=auto;html=1;exitX=0;exitY=0.5;exitDx=0;exitDy=0;entryX=0;entryY=0.5;entryDx=0;entryDy=0;" parent="NN94MEbzVgPjQeB1y7oX-16" source="tIHRY-3RhcEeKSHxBCo6-29" target="tIHRY-3RhcEeKSHxBCo6-30" edge="1">
          <mxGeometry relative="1" as="geometry" />
        </mxCell>
        <mxCell id="tIHRY-3RhcEeKSHxBCo6-26" style="edgeStyle=orthogonalEdgeStyle;rounded=0;orthogonalLoop=1;jettySize=auto;html=1;exitX=0;exitY=0.5;exitDx=0;exitDy=0;entryX=0;entryY=0.5;entryDx=0;entryDy=0;" parent="NN94MEbzVgPjQeB1y7oX-16" source="tIHRY-3RhcEeKSHxBCo6-29" target="tIHRY-3RhcEeKSHxBCo6-31" edge="1">
          <mxGeometry relative="1" as="geometry" />
        </mxCell>
        <mxCell id="tIHRY-3RhcEeKSHxBCo6-27" style="edgeStyle=orthogonalEdgeStyle;rounded=0;orthogonalLoop=1;jettySize=auto;html=1;exitX=0;exitY=0.5;exitDx=0;exitDy=0;entryX=0;entryY=0.5;entryDx=0;entryDy=0;" parent="NN94MEbzVgPjQeB1y7oX-16" source="tIHRY-3RhcEeKSHxBCo6-29" target="tIHRY-3RhcEeKSHxBCo6-32" edge="1">
          <mxGeometry relative="1" as="geometry" />
        </mxCell>
        <mxCell id="tIHRY-3RhcEeKSHxBCo6-29" value="Fase 3 - Desenvolvimento do Backend" style="rounded=0;whiteSpace=wrap;html=1;" parent="NN94MEbzVgPjQeB1y7oX-16" vertex="1">
          <mxGeometry width="120" height="60" as="geometry" />
        </mxCell>
        <mxCell id="tIHRY-3RhcEeKSHxBCo6-30" value="3.1 Configuração do Ambiente Backend" style="rounded=0;whiteSpace=wrap;html=1;" parent="NN94MEbzVgPjQeB1y7oX-16" vertex="1">
          <mxGeometry x="5" y="110" width="120" height="60" as="geometry" />
        </mxCell>
        <mxCell id="tIHRY-3RhcEeKSHxBCo6-31" value="3.2 Desenvolvimento da API" style="rounded=0;whiteSpace=wrap;html=1;points=[[0,0,0,0,0],[0,0.25,0,0,0],[0,0.5,0,0,0],[0,0.75,0,0,0],[0,1,0,0,0],[0.25,0,0,0,0],[0.25,1,0,0,0],[0.5,0,0,0,0],[0.5,1,0,0,0],[0.75,0,0,0,0],[0.75,1,0,0,0],[1,0,0,0,0],[1,0.25,0,0,0],[1,0.5,0,0,0],[1,0.75,0,0,0],[1,1,0,0,0]];" parent="NN94MEbzVgPjQeB1y7oX-16" vertex="1">
          <mxGeometry x="5" y="197" width="120" height="60" as="geometry" />
        </mxCell>
        <mxCell id="tIHRY-3RhcEeKSHxBCo6-32" value="3.3 Testes Unitários no Backend" style="rounded=0;whiteSpace=wrap;html=1;" parent="NN94MEbzVgPjQeB1y7oX-16" vertex="1">
          <mxGeometry x="5" y="283" width="120" height="60" as="geometry" />
        </mxCell>
        <mxCell id="NN94MEbzVgPjQeB1y7oX-17" value="" style="group" vertex="1" connectable="0" parent="1">
          <mxGeometry x="765" y="160" width="120" height="343" as="geometry" />
        </mxCell>
        <mxCell id="tIHRY-3RhcEeKSHxBCo6-53" style="edgeStyle=orthogonalEdgeStyle;rounded=0;orthogonalLoop=1;jettySize=auto;html=1;exitX=0;exitY=0.5;exitDx=0;exitDy=0;entryX=0;entryY=0.5;entryDx=0;entryDy=0;" parent="NN94MEbzVgPjQeB1y7oX-17" source="tIHRY-3RhcEeKSHxBCo6-57" target="tIHRY-3RhcEeKSHxBCo6-58" edge="1">
          <mxGeometry relative="1" as="geometry" />
        </mxCell>
        <mxCell id="tIHRY-3RhcEeKSHxBCo6-54" style="edgeStyle=orthogonalEdgeStyle;rounded=0;orthogonalLoop=1;jettySize=auto;html=1;exitX=0;exitY=0.5;exitDx=0;exitDy=0;entryX=0;entryY=0.5;entryDx=0;entryDy=0;" parent="NN94MEbzVgPjQeB1y7oX-17" source="tIHRY-3RhcEeKSHxBCo6-57" target="tIHRY-3RhcEeKSHxBCo6-59" edge="1">
          <mxGeometry relative="1" as="geometry" />
        </mxCell>
        <mxCell id="tIHRY-3RhcEeKSHxBCo6-55" style="edgeStyle=orthogonalEdgeStyle;rounded=0;orthogonalLoop=1;jettySize=auto;html=1;exitX=0;exitY=0.5;exitDx=0;exitDy=0;entryX=0;entryY=0.5;entryDx=0;entryDy=0;" parent="NN94MEbzVgPjQeB1y7oX-17" source="tIHRY-3RhcEeKSHxBCo6-57" target="tIHRY-3RhcEeKSHxBCo6-60" edge="1">
          <mxGeometry relative="1" as="geometry" />
        </mxCell>
        <mxCell id="tIHRY-3RhcEeKSHxBCo6-57" value="Fase 4 - Desenvolvimento do Frontend" style="rounded=0;whiteSpace=wrap;html=1;" parent="NN94MEbzVgPjQeB1y7oX-17" vertex="1">
          <mxGeometry width="120" height="60" as="geometry" />
        </mxCell>
        <mxCell id="tIHRY-3RhcEeKSHxBCo6-58" value="4.1 Desenvolvimento da Interface em Flutter" style="rounded=0;whiteSpace=wrap;html=1;" parent="NN94MEbzVgPjQeB1y7oX-17" vertex="1">
          <mxGeometry y="110" width="120" height="60" as="geometry" />
        </mxCell>
        <mxCell id="tIHRY-3RhcEeKSHxBCo6-59" value="4.2 Integração com a API" style="rounded=0;whiteSpace=wrap;html=1;" parent="NN94MEbzVgPjQeB1y7oX-17" vertex="1">
          <mxGeometry y="197" width="120" height="60" as="geometry" />
        </mxCell>
        <mxCell id="tIHRY-3RhcEeKSHxBCo6-60" value="4.3 Testes de Usabilidade" style="rounded=0;whiteSpace=wrap;html=1;" parent="NN94MEbzVgPjQeB1y7oX-17" vertex="1">
          <mxGeometry y="283" width="120" height="60" as="geometry" />
        </mxCell>
        <mxCell id="NN94MEbzVgPjQeB1y7oX-18" value="" style="group" vertex="1" connectable="0" parent="1">
          <mxGeometry x="1005" y="160" width="120" height="343" as="geometry" />
        </mxCell>
        <mxCell id="tIHRY-3RhcEeKSHxBCo6-62" style="edgeStyle=orthogonalEdgeStyle;rounded=0;orthogonalLoop=1;jettySize=auto;html=1;exitX=0;exitY=0.5;exitDx=0;exitDy=0;entryX=0;entryY=0.5;entryDx=0;entryDy=0;" parent="NN94MEbzVgPjQeB1y7oX-18" source="tIHRY-3RhcEeKSHxBCo6-66" target="tIHRY-3RhcEeKSHxBCo6-67" edge="1">
          <mxGeometry relative="1" as="geometry" />
        </mxCell>
        <mxCell id="tIHRY-3RhcEeKSHxBCo6-63" style="edgeStyle=orthogonalEdgeStyle;rounded=0;orthogonalLoop=1;jettySize=auto;html=1;exitX=0;exitY=0.5;exitDx=0;exitDy=0;entryX=0;entryY=0.5;entryDx=0;entryDy=0;" parent="NN94MEbzVgPjQeB1y7oX-18" source="tIHRY-3RhcEeKSHxBCo6-66" target="tIHRY-3RhcEeKSHxBCo6-68" edge="1">
          <mxGeometry relative="1" as="geometry" />
        </mxCell>
        <mxCell id="tIHRY-3RhcEeKSHxBCo6-64" style="edgeStyle=orthogonalEdgeStyle;rounded=0;orthogonalLoop=1;jettySize=auto;html=1;exitX=0;exitY=0.5;exitDx=0;exitDy=0;entryX=0;entryY=0.5;entryDx=0;entryDy=0;" parent="NN94MEbzVgPjQeB1y7oX-18" source="tIHRY-3RhcEeKSHxBCo6-66" target="tIHRY-3RhcEeKSHxBCo6-69" edge="1">
          <mxGeometry relative="1" as="geometry" />
        </mxCell>
        <mxCell id="tIHRY-3RhcEeKSHxBCo6-66" value="Fase 5 - Testes e Validação" style="rounded=0;whiteSpace=wrap;html=1;" parent="NN94MEbzVgPjQeB1y7oX-18" vertex="1">
          <mxGeometry width="120" height="60" as="geometry" />
        </mxCell>
        <mxCell id="tIHRY-3RhcEeKSHxBCo6-67" value="5.1 Testes de Integração" style="rounded=0;whiteSpace=wrap;html=1;" parent="NN94MEbzVgPjQeB1y7oX-18" vertex="1">
          <mxGeometry y="110" width="120" height="60" as="geometry" />
        </mxCell>
        <mxCell id="tIHRY-3RhcEeKSHxBCo6-68" value="&lt;div&gt;5.2 Testes de Desempenho&lt;/div&gt;" style="rounded=0;whiteSpace=wrap;html=1;" parent="NN94MEbzVgPjQeB1y7oX-18" vertex="1">
          <mxGeometry y="197" width="120" height="60" as="geometry" />
        </mxCell>
        <mxCell id="tIHRY-3RhcEeKSHxBCo6-69" value="5.3 Correções de Bugs" style="rounded=0;whiteSpace=wrap;html=1;" parent="NN94MEbzVgPjQeB1y7oX-18" vertex="1">
          <mxGeometry y="283" width="120" height="60" as="geometry" />
        </mxCell>
        <mxCell id="NN94MEbzVgPjQeB1y7oX-21" value="" style="edgeStyle=orthogonalEdgeStyle;rounded=0;orthogonalLoop=1;jettySize=auto;html=1;entryX=1;entryY=0.5;entryDx=0;entryDy=0;entryPerimeter=0;" edge="1" parent="1" source="tIHRY-3RhcEeKSHxBCo6-31" target="tIHRY-3RhcEeKSHxBCo6-39">
          <mxGeometry relative="1" as="geometry">
            <Array as="points">
              <mxPoint x="725" y="390" />
              <mxPoint x="725" y="550" />
            </Array>
          </mxGeometry>
        </mxCell>
        <mxCell id="NN94MEbzVgPjQeB1y7oX-29" value="" style="edgeStyle=orthogonalEdgeStyle;rounded=0;orthogonalLoop=1;jettySize=auto;html=1;exitX=0.5;exitY=1;exitDx=0;exitDy=0;exitPerimeter=0;" edge="1" parent="1" source="tIHRY-3RhcEeKSHxBCo6-1" target="tIHRY-3RhcEeKSHxBCo6-2">
          <mxGeometry relative="1" as="geometry" />
        </mxCell>
        <mxCell id="NN94MEbzVgPjQeB1y7oX-31" value="" style="edgeStyle=orthogonalEdgeStyle;rounded=0;orthogonalLoop=1;jettySize=auto;html=1;exitX=0.508;exitY=1;exitDx=0;exitDy=0;exitPerimeter=0;" edge="1" parent="1" source="tIHRY-3RhcEeKSHxBCo6-1" target="tIHRY-3RhcEeKSHxBCo6-20">
          <mxGeometry relative="1" as="geometry">
            <mxPoint x="345" y="80" as="sourcePoint" />
          </mxGeometry>
        </mxCell>
        <mxCell id="NN94MEbzVgPjQeB1y7oX-33" value="" style="edgeStyle=orthogonalEdgeStyle;rounded=0;orthogonalLoop=1;jettySize=auto;html=1;exitX=0.5;exitY=1;exitDx=0;exitDy=0;exitPerimeter=0;" edge="1" parent="1" source="tIHRY-3RhcEeKSHxBCo6-1" target="tIHRY-3RhcEeKSHxBCo6-57">
          <mxGeometry relative="1" as="geometry">
            <mxPoint x="825" y="80" as="sourcePoint" />
          </mxGeometry>
        </mxCell>
        <mxCell id="NN94MEbzVgPjQeB1y7oX-35" value="" style="edgeStyle=orthogonalEdgeStyle;rounded=0;orthogonalLoop=1;jettySize=auto;html=1;exitX=0.5;exitY=1;exitDx=0;exitDy=0;exitPerimeter=0;" edge="1" parent="1" source="tIHRY-3RhcEeKSHxBCo6-1" target="tIHRY-3RhcEeKSHxBCo6-66">
          <mxGeometry relative="1" as="geometry">
            <mxPoint x="1065" y="80" as="sourcePoint" />
          </mxGeometry>
        </mxCell>
        <mxCell id="NN94MEbzVgPjQeB1y7oX-36" value="" style="edgeStyle=orthogonalEdgeStyle;rounded=0;orthogonalLoop=1;jettySize=auto;html=1;" edge="1" parent="1" source="tIHRY-3RhcEeKSHxBCo6-1" target="tIHRY-3RhcEeKSHxBCo6-29">
          <mxGeometry relative="1" as="geometry">
            <Array as="points">
              <mxPoint x="583" y="150" />
              <mxPoint x="583" y="150" />
            </Array>
          </mxGeometry>
        </mxCell>
      </root>
    </mxGraphModel>
  </diagram>
</mxfile>
